<svg xmlns="http://www.w3.org/2000/svg">  
    <symbol id="icon-arrow" viewBox="0 0 476.213 476.213" >
        <polygon fill="inherit" points="347.5,324.393 253.353,418.541 253.353,0 223.353,0 223.353,419.033 128.713,324.393 107.5,345.607 238.107,476.213 368.713,345.606 "/>
    </symbol>
    
    <symbol id="icon-shop" viewBox="0 0 19.25 19.25">
        <path d="M19.006,2.97c-0.191-0.219-0.466-0.345-0.756-0.345H4.431L4.236,1.461
                C4.156,0.979,3.739,0.625,3.25,0.625H1c-0.553,0-1,0.447-1,1s0.447,1,1,1h1.403l1.86,11.164c0.008,0.045,0.031,0.082,0.045,0.124
                c0.016,0.053,0.029,0.103,0.054,0.151c0.032,0.066,0.075,0.122,0.12,0.179c0.031,0.039,0.059,0.078,0.095,0.112
                c0.058,0.054,0.125,0.092,0.193,0.13c0.038,0.021,0.071,0.049,0.112,0.065c0.116,0.047,0.238,0.075,0.367,0.075
                c0.001,0,11.001,0,11.001,0c0.553,0,1-0.447,1-1s-0.447-1-1-1H6.097l-0.166-1H17.25c0.498,0,0.92-0.366,0.99-0.858l1-7
                C19.281,3.479,19.195,3.188,19.006,2.97z M17.097,4.625l-0.285,2H13.25v-2H17.097z M12.25,4.625v2h-3v-2H12.25z M12.25,7.625v2
                h-3v-2H12.25z M8.25,4.625v2h-3c-0.053,0-0.101,0.015-0.148,0.03l-0.338-2.03H8.25z M5.264,7.625H8.25v2H5.597L5.264,7.625z
                 M13.25,9.625v-2h3.418l-0.285,2H13.25z"/>
        <circle  cx="6.75" cy="17.125" r="1.5"/>
        <circle  cx="15.75" cy="17.125" r="1.5"/>
    </symbol>
    
    <symbol id="icon-profile" viewBox="0 0 482.9 482.9">
        <path d="M239.7,260.2c0.5,0,1,0,1.6,0c0.2,0,0.4,0,0.6,0c0.3,0,0.7,0,1,0c29.3-0.5,53-10.8,70.5-30.5
            c38.5-43.4,32.1-117.8,31.4-124.9c-2.5-53.3-27.7-78.8-48.5-90.7C280.8,5.2,262.7,0.4,242.5,0h-0.7c-0.1,0-0.3,0-0.4,0h-0.6
            c-11.1,0-32.9,1.8-53.8,13.7c-21,11.9-46.6,37.4-49.1,91.1c-0.7,7.1-7.1,81.5,31.4,124.9C186.7,249.4,210.4,259.7,239.7,260.2z
             M164.6,107.3c0-0.3,0.1-0.6,0.1-0.8c3.3-71.7,54.2-79.4,76-79.4h0.4c0.2,0,0.5,0,0.8,0c27,0.6,72.9,11.6,76,79.4
            c0,0.3,0,0.6,0.1,0.8c0.1,0.7,7.1,68.7-24.7,104.5c-12.6,14.2-29.4,21.2-51.5,21.4c-0.2,0-0.3,0-0.5,0l0,0c-0.2,0-0.3,0-0.5,0
            c-22-0.2-38.9-7.2-51.4-21.4C157.7,176.2,164.5,107.9,164.6,107.3z"/>
        <path d="M446.8,383.6c0-0.1,0-0.2,0-0.3c0-0.8-0.1-1.6-0.1-2.5c-0.6-19.8-1.9-66.1-45.3-80.9c-0.3-0.1-0.7-0.2-1-0.3
            c-45.1-11.5-82.6-37.5-83-37.8c-6.1-4.3-14.5-2.8-18.8,3.3c-4.3,6.1-2.8,14.5,3.3,18.8c1.7,1.2,41.5,28.9,91.3,41.7
            c23.3,8.3,25.9,33.2,26.6,56c0,0.9,0,1.7,0.1,2.5c0.1,9-0.5,22.9-2.1,30.9c-16.2,9.2-79.7,41-176.3,41
            c-96.2,0-160.1-31.9-176.4-41.1c-1.6-8-2.3-21.9-2.1-30.9c0-0.8,0.1-1.6,0.1-2.5c0.7-22.8,3.3-47.7,26.6-56
            c49.8-12.8,89.6-40.6,91.3-41.7c6.1-4.3,7.6-12.7,3.3-18.8c-4.3-6.1-12.7-7.6-18.8-3.3c-0.4,0.3-37.7,26.3-83,37.8
            c-0.4,0.1-0.7,0.2-1,0.3c-43.4,14.9-44.7,61.2-45.3,80.9c0,0.9,0,1.7-0.1,2.5c0,0.1,0,0.2,0,0.3c-0.1,5.2-0.2,31.9,5.1,45.3
            c1,2.6,2.8,4.8,5.2,6.3c3,2,74.9,47.8,195.2,47.8s192.2-45.9,195.2-47.8c2.3-1.5,4.2-3.7,5.2-6.3
            C447,415.5,446.9,388.8,446.8,383.6z"/>
    </symbol>
    
    <symbol id="star" viewBox="0 0 306 306">
        <polygon points="153,230.775 247.35,299.625 211.65,187.425 306,121.125 191.25,121.125 153,6.375 114.75,121.125 0,121.125 
                        94.35,187.425 58.65,299.625"/>
    </symbol>
    
    <symbol id="right-angle" viewBox="0 0 1792 1792">
        <path d="M1171 960q0 13-10 23l-466 466q-10 10-23 10t-23-10l-50-50q-10-10-10-23t10-23l393-393-393-393q-10-10-10-23t10-23l50-50q10-10 23-10t23 10l466 466q10 10 10 23z"/>
    </symbol>
    
    <symbol id="left-angle" viewBox="0 0 1792 1792">
        <path d="M1203 544q0 13-10 23l-393 393 393 393q10 10 10 23t-10 23l-50 50q-10 10-23 10t-23-10l-466-466q-10-10-10-23t10-23l466-466q10-10 23-10t23 10l50 50q10 10 10 23z"/>
    </symbol>
</svg>
